<?xml version="1.0" standalone="no"?>
<!DOCTYPE svg PUBLIC "-//W3C//DTD SVG 20010904//EN"
 "http://www.w3.org/TR/2001/REC-SVG-20010904/DTD/svg10.dtd">
<svg version="1.0" xmlns="http://www.w3.org/2000/svg"
 width="700.000000pt" height="700.000000pt" viewBox="0 0 700.000000 700.000000"
 preserveAspectRatio="xMidYMid meet">
<metadata>
Created by potrace 1.11, written by Peter Selinger 2001-2013
</metadata>
<g transform="translate(0.000000,700.000000) scale(0.100000,-0.100000)"
fill="#000000" stroke="none">
<path d="M3180 6955 c-63 -7 -135 -16 -160 -19 -132 -20 -183 -29 -265 -47
-49 -12 -98 -22 -108 -24 -52 -11 -299 -90 -380 -121 -193 -76 -399 -176 -564
-276 -94 -57 -293 -193 -329 -226 -10 -9 -51 -42 -89 -73 -76 -61 -99 -81
-190 -169 -231 -222 -460 -515 -610 -780 -50 -90 -177 -352 -204 -425 -13 -33
-29 -73 -36 -90 -60 -140 -157 -530 -180 -720 -4 -32 -9 -68 -11 -80 -18 -96
-26 -553 -11 -705 50 -522 198 -992 447 -1426 94 -162 257 -398 331 -477 10
-11 35 -41 56 -67 61 -78 309 -319 424 -413 374 -305 755 -505 1254 -657 98
-30 359 -83 465 -95 30 -3 62 -8 70 -10 110 -29 678 -26 860 5 30 5 73 11 95
14 70 10 108 17 200 38 50 11 97 21 105 23 43 9 237 69 320 99 153 55 198 74
340 143 480 233 881 555 1212 973 418 528 677 1179 735 1850 9 111 10 470 1
585 -40 500 -198 1006 -451 1445 -51 87 -159 256 -189 295 -200 258 -417 495
-546 597 -26 21 -58 48 -72 60 -115 107 -412 301 -625 410 -353 181 -808 318
-1170 353 -38 4 -81 9 -95 12 -58 11 -520 10 -630 -2z"/>
</g>
</svg>
